<svg width="68" height="69" viewBox="0 0 68 69" fill="none" xmlns="http://www.w3.org/2000/svg">
<rect y="0.984375" width="68" height="68" rx="20" fill="#0328EE"/>
<g clip-path="url(#clip0_26_19726)">
<path opacity="0.4" d="M56.1314 34.7276C56.1314 47.0923 46.1084 57.1153 33.7437 57.1153C21.3789 57.1153 11.356 47.0923 11.356 34.7276C11.356 22.3651 21.3789 12.3398 33.7437 12.3398C46.1084 12.3398 56.1314 22.3651 56.1314 34.7276Z" fill="white"/>
<path d="M42.3848 27.3517L38.758 38.8142C38.6237 39.2843 38.2431 39.6649 37.7729 39.8015L26.3552 43.3813C25.594 43.6298 24.8552 42.8887 25.1015 42.1276L28.6835 30.6427C28.8179 30.1725 29.1984 29.8143 29.6686 29.6576L41.1311 26.0756C41.9147 25.8293 42.6311 26.5681 42.3848 27.3517Z" fill="white"/>
</g>
<defs>
<clipPath id="clip0_26_19726">
<rect width="46" height="46" fill="white" transform="translate(11 11.9844)"/>
</clipPath>
</defs>
</svg>
